<svg width="45" height="42" viewBox="0 0 45 42" fill="none" xmlns="http://www.w3.org/2000/svg">
<rect width="45" height="42" fill="#F5F5F5"/>
<rect id="Rectangle 4519" x="-439" y="-148" width="1637" height="976" rx="22" fill="white"/>
<rect id="Rectangle 4543" x="-410" y="-44" width="1581" height="841" rx="6" fill="url(#paint0_linear_0_1)"/>
<rect id="Rectangle 5" x="-335" width="380" height="42" rx="21" fill="white"/>
<path id="Rectangle 4544" d="M0 0H26C36.4934 0 45 8.50659 45 19V23C45 33.4934 36.4934 42 26 42H0V0Z" fill="#744BFC"/>
<g id="Group 164017">
<path id="Vector" d="M19.6 29.2C23.7974 29.2 27.2 25.7974 27.2 21.6C27.2 17.4026 23.7974 14 19.6 14C15.4026 14 12 17.4026 12 21.6C12 25.7974 15.4026 29.2 19.6 29.2Z" stroke="white" stroke-linecap="round" stroke-linejoin="round"/>
<path id="Vector_2" d="M27.6 30L26 28.4" stroke="white" stroke-linecap="round" stroke-linejoin="round"/>
</g>
<defs>
<linearGradient id="paint0_linear_0_1" x1="380.5" y1="-301" x2="380.5" y2="1098.5" gradientUnits="userSpaceOnUse">
<stop stop-color="#EFF2FF"/>
<stop offset="1" stop-color="#E8ECFF" stop-opacity="0"/>
</linearGradient>
</defs>
</svg>
